<svg width="1092" height="516" viewBox="0 0 1092 516" fill="none" xmlns="http://www.w3.org/2000/svg">
<path d="M418.67 252.782C405.059 261.661 390.456 266.101 374.863 266.101C366.608 266.101 359.142 264.762 352.501 262.083C345.842 259.405 340.228 255.626 335.642 250.728C331.056 245.83 327.497 239.941 324.984 233.062C322.452 226.183 321.205 218.606 321.205 210.351C321.205 202.702 322.434 195.675 324.874 189.255C327.313 182.834 330.763 177.312 335.202 172.726C339.641 168.14 344.961 164.581 351.143 162.068C357.344 159.536 364.26 158.289 371.91 158.289C379.559 158.289 385.907 159.5 391.869 161.958C397.831 164.397 402.949 167.993 407.242 172.726C411.516 177.477 414.818 183.201 417.111 189.933C419.404 196.666 420.56 204.242 420.56 212.644V215.634H343.017C343.622 225.577 346.832 233.264 352.648 238.675C358.463 244.105 366.259 246.82 376.056 246.82C389.209 246.82 403.426 241.941 418.725 232.145V252.782H418.67ZM397.812 200.94C397.042 193.309 394.29 187.218 389.557 182.706C384.806 178.193 378.844 175.936 371.653 175.936C355.601 175.936 346.044 184.284 342.98 200.94H397.812Z" fill="#FFFBFB"/>
<path d="M458.584 160.336H479.46V166.078C487.11 160.721 495.97 158.043 506.078 158.043C513.416 158.043 520.222 159.346 526.496 161.951C532.77 164.537 538.108 168.225 542.547 172.957C546.987 177.69 550.454 183.396 552.986 190.036C555.517 196.695 556.765 203.997 556.765 211.958C556.765 219.92 555.499 227.405 552.986 233.972C550.454 240.558 546.987 246.208 542.547 250.941C538.108 255.692 532.752 259.361 526.496 261.966C520.222 264.553 513.416 265.855 506.078 265.855C500.868 265.855 496.135 265.25 491.861 264.02C487.568 262.792 483.441 260.81 479.479 258.059V315.863H458.602V160.336H458.584ZM479.46 241.09C486.046 245.823 493.145 248.189 500.795 248.189C511.343 248.189 519.635 245.015 525.689 238.668C531.724 232.339 534.751 223.424 534.751 211.958C534.751 200.493 531.724 191.614 525.689 185.34C519.635 179.066 511.343 175.929 500.795 175.929C493.145 175.929 486.046 178.314 479.46 183.047V241.09Z" fill="#FFFBFB"/>
<path d="M686.824 256.231C679.488 262.505 671.762 265.642 663.654 265.642C659.674 265.642 656.685 264.835 654.702 263.221C652.719 261.625 651.566 258.983 651.254 255.314C646.209 258.836 641.349 261.441 636.69 263.11C632.031 264.798 626.927 265.642 621.427 265.642C611.796 265.642 604.456 263.386 599.41 258.873C594.365 254.36 591.854 248.288 591.854 240.638C591.854 226.109 603.244 215.029 626.028 207.361L650.575 199.106C650.722 198.354 650.795 197.62 650.795 196.923V194.758C650.795 188.484 649.256 184.008 646.209 181.33C643.146 178.651 638.175 177.312 631.293 177.312C619.518 177.312 607.43 182.137 595.044 191.768V171.35C600.402 166.929 606.365 163.627 612.949 161.499C619.518 159.353 626.487 158.289 633.828 158.289C647.586 158.289 657.378 161.26 663.195 167.223C669.012 173.185 671.908 182.596 671.908 195.437V239.262C671.908 242.62 672.167 245.151 672.719 246.82C673.246 248.508 674.35 249.352 676.035 249.352C677.725 249.352 679.395 248.82 681.08 247.738C682.77 246.674 684.68 245.298 686.824 243.61V256.231ZM650.595 212.424C638.209 216.24 628.983 219.945 622.946 223.541C616.895 227.137 613.887 231.686 613.887 237.19C613.887 241.482 615.259 244.766 618.014 247.059C620.763 249.352 624.583 250.489 629.476 250.489C636.817 250.489 643.86 247.903 650.575 242.693V212.424H650.595Z" fill="#FFFBFB"/>
<path d="M717.58 160.35H738.215V182.841C743.407 174.567 748.305 168.458 752.891 164.478C757.477 160.497 762.762 158.516 768.725 158.516C775.914 158.516 783.782 161.873 792.354 168.605L781.106 186.968C777.897 184.217 774.757 182.143 771.695 180.768C768.632 179.392 765.35 178.695 761.824 178.695C756.471 178.695 751.646 180.97 747.372 185.464C743.079 189.977 740.032 196.599 738.2 205.313V263.814H717.561V160.35H717.58Z" fill="#FFFBFB"/>
<path d="M891.006 258.058C887.025 260.809 882.859 262.809 878.493 264.019C874.127 265.249 869.36 265.854 864.168 265.854C856.828 265.854 850.024 264.552 843.748 261.965C837.477 259.36 832.12 255.691 827.7 250.94C823.26 246.207 819.773 240.557 817.258 233.971C814.728 227.403 813.482 220.066 813.482 211.957C813.482 203.849 814.747 196.694 817.258 190.035C819.773 183.395 823.26 177.689 827.7 172.956C832.139 168.205 837.477 164.536 843.748 161.95C850.024 159.344 856.828 158.042 864.168 158.042C874.405 158.042 883.357 160.72 891.006 166.077V107.117H911.66V263.8H891.006V258.058ZM891.006 182.587C884.437 177.854 877.248 175.469 869.448 175.469C858.903 175.469 850.591 178.662 844.554 184.99C838.503 191.337 835.494 200.253 835.494 211.719C835.494 223.184 838.503 232.1 844.554 238.447C850.591 244.794 858.884 247.968 869.448 247.968C877.248 247.968 884.437 245.601 891.006 240.85V182.587Z" fill="#FFFBFB"/>
<path d="M261.103 161.96V167.683C257.122 164.932 252.958 162.95 248.592 161.722C244.226 160.51 239.457 159.887 234.265 159.887C226.927 159.887 220.121 161.189 213.848 163.794C207.574 166.4 202.217 170.068 197.796 174.801C193.356 179.534 189.871 185.203 187.357 191.77C184.826 198.356 183.56 205.694 183.56 213.802C183.56 221.91 184.826 229.047 187.357 235.706C189.871 242.365 193.356 248.052 197.796 252.803C202.235 257.536 207.592 261.205 213.848 263.81C220.121 266.415 226.927 267.717 234.265 267.717C244.501 267.717 253.454 265.039 261.103 259.682V269.295C261.103 286.833 245.29 295.326 233.311 295.326C215.406 295.326 211.884 289.602 207.17 282.98H181.744C181.744 282.98 192.641 311.616 233.018 311.616C273.394 311.616 281.741 277.293 281.741 267.497V161.96H261.103ZM239.548 250.272C229 250.272 220.708 247.098 214.654 240.75C208.619 234.403 205.592 225.506 205.592 214.022C205.592 202.538 208.619 193.641 214.654 187.312C220.69 180.965 228.981 177.773 239.548 177.773C247.345 177.773 254.536 180.158 261.121 184.891V243.154C254.554 247.905 247.363 250.272 239.548 250.272Z" fill="#FFFBFB"/>
<path d="M926.775 379.172H166.15C132.89 379.172 105.832 352.114 105.832 318.836V98.8278C105.832 65.5507 132.89 38.4922 166.15 38.4922H926.775C960.035 38.4922 987.092 65.5507 987.092 98.8097V318.836C987.092 352.095 960.035 379.172 926.775 379.172ZM166.15 59.13C144.283 59.13 126.47 76.9427 126.47 98.8097V318.836C126.47 340.721 144.283 358.534 166.15 358.534H926.775C948.66 358.534 966.457 340.721 966.457 318.836V98.8097C966.457 76.9244 948.645 59.13 926.775 59.13H166.15Z" fill="#FFFBFB"/>
</svg>
