<svg width="24" height="24" viewBox="0 0 24 24" fill="none" xmlns="http://www.w3.org/2000/svg">
<g clip-path="url(#clip0_4105_1081)">
<path d="M12 0C5.383 0 0 5.383 0 12C0 18.617 5.383 24 12 24C18.617 24 24 18.617 24 12C24 5.383 18.617 0 12 0ZM10 7C10 5.895 10.895 5 12 5C13.105 5 14 5.895 14 7V12C14 13.105 13.105 14 12 14C10.895 14 10 13.105 10 12V7ZM13 17.916V19C13 19.552 12.553 20 12 20C11.447 20 11 19.552 11 19V17.916C8.166 17.439 6 14.968 6 12C6 11.448 6.447 11 7 11C7.553 11 8 11.448 8 12C8 14.206 9.794 16 12 16C14.206 16 16 14.206 16 12C16 11.448 16.447 11 17 11C17.553 11 18 11.448 18 12C18 14.968 15.834 17.439 13 17.916Z" fill="#3C3D3D"/>
</g>
<defs>
<clipPath id="clip0_4105_1081">
<rect width="24" height="24" fill="white"/>
</clipPath>
</defs>
</svg>
